<svg xmlns:xlink="http://www.w3.org/1999/xlink" xmlns="http://www.w3.org/2000/svg" width="24" height="24" viewBox="0 0 24 24"><path d="M11.834 8.933c0 3.114 1.73 5.786 4.163 5.786 2.431 0 4.16-2.672 4.16-5.786C20.156 5.82 18.681 4 15.996 4c-2.687 0-4.163 1.82-4.163 4.933ZM9.247 20.619c.897.588 3.149.88 6.753.88s5.855-.292 6.753-.879a.547.547 0 0 0 .246-.495c-.167-2.437-2.502-3.657-7.003-3.657-4.503 0-6.835 1.22-6.995 3.66a.547.547 0 0 0 .246.491Z" fill="#9E9B98"></path><path d="M16 21.5c-3.604 0-5.856-.293-6.753-.88a.548.548 0 0 1-.246-.493c.16-2.439 2.492-3.658 6.995-3.658 4.501 0 6.836 1.22 7.003 3.656a.546.546 0 0 1-.246.496c-.898.586-3.15.879-6.753.879Z" fill="#9E9B98"></path><path d="M6.997 15.188c-2.085 0-3.568-2.29-3.568-4.96C3.429 7.56 4.695 6 6.997 6s3.565 1.56 3.565 4.228c0 2.67-1.48 4.96-3.565 4.96ZM7 21c-3.09 0-5.02-.251-5.788-.755A.469.469 0 0 1 1 19.823c.137-2.09 2.136-3.136 5.995-3.136 1.047 0 1.957.077 2.73.231-1.032.755-1.636 1.815-1.723 3.144v.002a1.547 1.547 0 0 0 .234.921c-.39.01-.802.015-1.237.015Zm4.03-3.697c1.233.515 1.89 1.355 1.969 2.519a.47.47 0 0 1-.211.424c-.496.324-1.474.544-2.934.659a2.806 2.806 0 0 1-.607-.286.548.548 0 0 1-.246-.492c.084-1.274.76-2.216 2.03-2.824Z" fill="#9E9B98"></path></svg>